/* XPM */
static char * gdocs_xpm[] = {
"16 16 64 1",
" 	c None",
".	c #C4CEDB",
"+	c #C2CDD9",
"@	c #C3CDDA",
"#	c #C2CCD9",
"$	c #A1AEC2",
"%	c #FFFFFF",
"&	c #F0F2F6",
"*	c #ACBDD3",
"=	c #9AA8B9",
"-	c #EDEFF3",
";	c #DBE4EE",
">	c #C0D4EA",
",	c #8898AC",
"'	c #F4F5F5",
")	c #DAE1E8",
"!	c #BDCCDC",
"~	c #627A98",
"{	c #4F6989",
"]	c #E6E8EB",
"^	c #C2C9CF",
"/	c #AEB8C3",
"(	c #506989",
"_	c #0064A4",
":	c #0065A5",
"<	c #0065A6",
"[	c #C8DFEC",
"}	c #ACCDE3",
"|	c #8DBAD6",
"1	c #72A8C9",
"2	c #5799C3",
"3	c #448FBC",
"4	c #F9FBFF",
"5	c #8FBBD7",
"6	c #5BA4CF",
"7	c #5BA5D0",
"8	c #5CA5D0",
"9	c #408BBC",
"0	c #408ABB",
"a	c #FCFDFF",
"b	c #F7FAFF",
"c	c #5AA3CE",
"d	c #F0F6FF",
"e	c #8EBBD6",
"f	c #5BA5CF",
"g	c #5AA4D0",
"h	c #5BA4D0",
"i	c #F2F8FF",
"j	c #EDF5FF",
"k	c #71A9CA",
"l	c #DEEDF6",
"m	c #EEF4FF",
"n	c #EEF5FF",
"o	c #E7F2FF",
"p	c #E8F2FF",
"q	c #5799C1",
"r	c #4F698A",
"s	c #506A8A",
"t	c #637B99",
"u	c #0064A5",
"v	c #448FBD",
"w	c #5AA4CE",
"x	c #3F89BA",
"y	c #408BBB",
".+++++@#$       ",
"+%%%%%%&*=      ",
"+%%%%%%-;>,     ",
"+%%%%%%')!~{    ",
"+%%%%%%%]^/{    ",
"+%%%%%%%%%%(    ",
"+%%%%%__:::<__  ",
"+%%%%__[}|123__ ",
"+%%%4_[5678890_ ",
"+aabb:}c%%%%%0: ",
"+bbbd:efghhh70: ",
"+iijj:k6%%%%l0: ",
"#mnop:q8777780: ",
"@r{stuv0%%%wx0_ ",
"     uu9000y9uu ",
"      __::::__  "};
